<?xml version="1.0" encoding="UTF-8"?><svg id="Capa_1" xmlns="http://www.w3.org/2000/svg" viewBox="0 0 410.17 409.97"><defs><style>.cls-1{fill:#c2ff32;stroke-width:0px;}</style></defs><path class="cls-1" d="M395.43,176.17c-2.04,5.95-5.32,10.63-11.96,12.1-8.2,1.82-16.13-3.16-17.91-11.73-3.97-19.2-10.69-37.33-21.11-53.95-23.95-38.2-57.85-62.88-101.52-74.15-.69-.18-1.41-.22-2.14-.32,11.38,41.96,12.45,83.09-6.56,123.37,2.67,3.54,6.06,7.25,8.51,11.5,2.45,4.26,3.96,9.06,6.07,14.09,11.15.05,22.63,2.2,33.72,6.09,30.88,10.82,58.22,27.17,79.54,52.44,7.3,8.66,12.92,18.32,14.02,30,.6,6.42-.65,12.42-3.98,17.92-28.68,47.48-70.44,76.85-124.37,88.84-35.54,7.9-70.79,6.08-105.48-5.24-7.35-2.4-11.94-8.21-11.77-15.05.17-6.76,4.83-12.92,11.65-14.18,3.13-.58,6.74-.11,9.82.86,18.96,5.96,38.32,9.01,58.18,8.14,42.99-1.89,80.65-16.6,111.66-47.03.79-.77,1.88-1.24,3.29-2.15-8.95-2.76-16.88-4.75-24.48-7.63-25.75-9.74-48.75-23.92-67.8-43.96-4.69-4.93-8.34-10.84-12.63-16.16-.69-.86-2.44-1.67-3.39-1.41-8.52,2.34-16.96,2.27-25.5.09-1.04-.27-2.99.31-3.5,1.13-11.18,18.07-27.15,31.1-44.71,42.36-17.73,11.37-36.66,20.12-57.43,24.37-10.84,2.22-21.73,2.97-32.55-.3-8.26-2.5-14.5-7.41-18.74-15-12.03-21.55-18.41-44.76-20.83-69.2-1.6-16.18-1.94-32.33-.08-48.53,4.07-35.35,16.63-67.36,38.34-95.48,7.8-10.11,17.01-19.22,26.1-28.25,6.81-6.76,16.03-6.23,21.91.29,5.83,6.46,4.95,15.77-2.19,22.2-26.46,23.84-43.69,53.09-51.52,87.83-4.18,18.54-4.78,37.3-2.82,56.14.92,8.85,2.43,17.63,3.74,26.96,31.73-31.59,67.68-52.69,112.73-56.6,2.01-9.59,6.88-18.11,14.39-24.89-13.83-25.79-16.38-53.26-14.66-81.52,1.01-16.51,3.85-32.62,10.54-47.87,1.45-3.3,3.16-6.5,5.01-9.59,5.48-9.17,13.09-15.8,23.47-18.95,6.24,0,12.48,0,18.72,0,.94.23,1.88.55,2.83.69,7.27,1.03,14.66,1.49,21.79,3.12,74.4,17,123.91,61.68,148.28,134.04,2.13,6.33,3.55,12.9,5.29,19.36v5.24ZM61.49,287.07c.22.43.44.87.66,1.3,5.02-.32,10.12-.18,15.06-1.03,19.09-3.28,36.13-11.62,52.17-22.14,12.05-7.91,23.12-16.96,31.32-29.03,1.63-2.39,2.75-5.13,4.1-7.71l-.67-1.3c-5.02.31-10.13.15-15.05,1.02-20.99,3.73-39.5,13.23-56.79,25.31-10.26,7.17-19.64,15.36-26.69,25.86-1.62,2.41-2.75,5.14-4.11,7.72ZM346.89,287.26c-2.6-4.15-4.5-8.25-7.34-11.56-20.96-24.47-47.52-39.76-78.73-47.12-5.63-1.33-11.47-2.37-18.23-.17,2.52,4.02,4.45,8.11,7.27,11.43,20.08,23.64,45.7,38.46,75.45,46.41,6.7,1.79,13.59,3.06,21.58,1.01ZM203.65,161.02c2.02-2.6,3.72-4.15,4.61-6.08,2.19-4.72,4.48-9.48,5.89-14.46,5.14-18.23,5.67-36.87,3.68-55.58-1.18-11.03-3.45-21.89-8.2-32.02-1.43-3.05-3.44-5.83-5.42-9.13-4.7,5.05-6.88,10.46-8.73,15.99-6.48,19.37-7.43,39.32-5.71,59.45.95,11.06,2.99,21.97,7.86,32.08,1.52,3.16,3.68,6.01,6.02,9.75ZM218.78,205.47c.04-8.26-6.65-15.06-14.84-15.07-8.11-.01-15,6.94-14.93,15.05.07,8.01,6.73,14.75,14.73,14.89,8.13.14,15.01-6.66,15.05-14.87Z"/></svg>